<?xml version="1.0" standalone="no"?>
<!DOCTYPE svg PUBLIC "-//W3C//DTD SVG 20010904//EN"
 "http://www.w3.org/TR/2001/REC-SVG-20010904/DTD/svg10.dtd">
<svg version="1.0" xmlns="http://www.w3.org/2000/svg"
 width="225.000000pt" height="225.000000pt" viewBox="0 0 225.000000 225.000000"
 preserveAspectRatio="xMidYMid meet">

<g transform="translate(0.000000,225.000000) scale(0.100000,-0.100000)"
fill="#000000" stroke="none">
<path d="M648 2170 c-52 -16 -98 -52 -126 -98 l-27 -47 0 -900 0 -900 28 -47
c18 -31 44 -57 75 -75 l47 -28 480 0 480 0 47 28 c31 18 57 44 75 75 l28 47 0
900 0 900 -28 47 c-18 31 -44 57 -75 75 l-47 28 -465 2 c-256 1 -477 -2 -492
-7z m973 -83 c73 -48 69 3 69 -914 l0 -823 -565 0 -565 0 0 823 c0 917 -4 866
69 914 l34 23 462 0 462 0 34 -23z m59 -1836 c-14 -48 -39 -79 -81 -95 -59
-24 -889 -24 -948 0 -42 16 -67 47 -81 95 l-9 29 564 0 564 0 -9 -29z"/>
<path d="M1255 1820 c-11 -4 -31 -20 -44 -34 l-24 -26 -204 0 c-234 0 -255 -5
-273 -68 -7 -24 -10 -131 -8 -309 l3 -271 24 -26 24 -26 372 0 372 0 24 26 24
26 3 306 c4 339 0 372 -48 397 -32 16 -209 20 -245 5z m213 -377 l2 -313 -345
0 -345 0 2 278 3 277 216 3 215 2 35 36 34 35 90 -3 90 -3 3 -312z"/>
<path d="M1137 1621 c-95 -12 -141 -22 -148 -32 -5 -8 -9 -51 -9 -96 0 -82 0
-83 -25 -83 -59 0 -115 -55 -115 -112 0 -41 36 -86 78 -99 33 -9 45 -9 75 6
55 26 67 62 67 208 l0 124 73 7 c39 3 93 9 120 12 l47 7 0 -62 0 -61 -37 0
c-60 -1 -103 -46 -103 -110 0 -44 56 -100 99 -100 41 0 83 22 99 52 9 16 12
71 10 188 l-3 165 -45 2 c-25 0 -107 -7 -183 -16z"/>
<path d="M807 875 l-59 -35 -18 22 c-15 19 -22 21 -37 12 -15 -10 -18 -25 -18
-105 0 -89 1 -94 22 -97 12 -2 27 5 35 16 13 19 15 19 81 -20 94 -57 98 -52
95 111 -4 149 -7 153 -101 96z m33 -100 c0 -40 -8 -43 -41 -16 l-23 18 30 16
c16 9 30 16 32 17 1 0 2 -16 2 -35z"/>
<path d="M992 898 c-8 -8 -12 -50 -12 -124 0 -90 3 -116 16 -129 20 -19 32
-16 156 46 144 72 144 92 -7 167 -109 54 -133 60 -153 40z"/>
<path d="M1347 903 c-4 -3 -7 -61 -7 -128 0 -158 4 -163 97 -107 66 39 68 39
81 20 8 -11 23 -18 35 -16 21 3 22 8 22 97 0 80 -3 95 -18 105 -15 9 -22 7
-37 -12 l-18 -22 -59 35 c-57 34 -83 42 -96 28z m104 -144 c-33 -27 -41 -24
-41 16 l0 36 32 -17 32 -17 -23 -18z"/>
<path d="M1032 238 c-6 -6 -12 -20 -12 -29 0 -31 25 -40 110 -37 66 2 85 7 94
21 8 12 8 22 0 35 -9 13 -28 18 -95 20 -57 2 -88 -1 -97 -10z"/>
</g>
</svg>
